<svg xmlns="http://www.w3.org/2000/svg" version="1.0" width="1182.000000pt" height="211.000000pt" viewBox="0 0 1182.000000 211.000000" preserveAspectRatio="xMidYMid meet">

<g transform="translate(0.000000,211.000000) scale(0.100000,-0.100000)" fill="#008dda" stroke="none">
<path d="M1190 1875 l0 -175 300 0 300 0 0 175 0 175 -300 0 -300 0 0 -175z" fill="#008dda"/>
<path d="M430 1600 l0 -300 300 0 300 0 0 300 0 300 -300 0 -300 0 0 -300z" fill="#008dda"/>
<path d="M11563 1883 c-10 -4 -13 -173 -13 -804 l0 -799 95 0 95 0 0 803 0 804 -82 0 c-46 0 -89 -2 -95 -4z" fill="#008dda"/>
<path d="M7295 1759 c-3 -13 -4 -350 -3 -749 l3 -725 123 -3 122 -3 0 251 c-1 137 2 255 5 260 4 6 68 10 158 10 220 0 321 33 428 140 135 135 170 399 77 583 -55 111 -140 178 -283 227 -65 22 -89 24 -347 28 l-277 4 -6 -23z m525 -220 c72 -15 138 -64 169 -124 21 -41 26 -64 26 -125 0 -95 -29 -158 -95 -206 -64 -47 -107 -55 -253 -52 l-128 3 0 253 c1 138 1 254 1 257 0 10 230 5 280 -6z" fill="#008dda"/>
<path d="M1190 1200 l0 -350 475 0 475 0 0 350 0 350 -475 0 -475 0 0 -350z" fill="#008dda"/>
<path d="M6690 1340 l0 -190 -75 0 -75 0 0 -85 0 -85 75 0 75 0 0 -350 0 -350 95 0 95 0 0 350 0 350 115 0 115 0 0 85 0 85 -115 0 -115 0 0 190 0 190 -95 0 -95 0 0 -190z" fill="#008dda"/>
<path d="M3415 1158 c-85 -31 -211 -133 -251 -203 -15 -28 -34 -9 -34 34 0 21 -3 66 -6 100 l-7 61 -78 0 -79 0 -2 -407 c-2 -225 -2 -420 0 -436 l3 -27 89 0 88 0 4 233 c3 231 3 232 30 278 42 71 146 129 232 129 l33 0 17 103 c10 56 20 112 23 125 6 25 -11 28 -62 10z" fill="#008dda"/>
<path d="M3906 1159 c-121 -30 -246 -136 -305 -258 -30 -64 -36 -88 -39 -163 -7 -133 27 -228 118 -331 137 -155 384 -193 586 -91 30 15 61 36 71 46 16 18 14 22 -48 84 l-65 65 -50 -25 c-101 -53 -211 -53 -300 -1 -49 29 -102 91 -88 105 9 8 449 186 571 230 34 12 64 28 66 34 9 23 -46 118 -104 180 -82 88 -171 129 -289 133 -47 1 -102 -2 -124 -8z m209 -199 c47 -20 83 -56 69 -69 -5 -5 -49 -25 -99 -45 -49 -19 -144 -57 -210 -85 -66 -27 -123 -47 -127 -45 -11 7 3 75 23 115 35 71 111 128 196 148 46 11 94 5 148 -19z" fill="#008dda"/>
<path d="M4867 1150 c-238 -84 -377 -336 -311 -561 24 -80 50 -126 107 -187 91 -96 198 -142 330 -142 96 0 171 20 237 65 l50 34 0 -40 0 -39 100 0 100 0 0 435 0 435 -95 0 -95 0 0 -43 c0 -24 -3 -47 -6 -50 -4 -4 -21 7 -38 24 -80 80 -257 112 -379 69z m235 -181 c56 -14 119 -67 150 -128 51 -97 34 -223 -42 -311 -93 -107 -290 -112 -397 -8 -74 72 -99 217 -53 309 65 130 184 178 342 138z" fill="#008dda"/>
<path d="M5989 1146 c-165 -58 -284 -200 -310 -370 -26 -166 59 -346 209 -446 139 -92 364 -93 500 -2 l43 29 -59 71 -59 70 -29 -18 c-44 -28 -135 -41 -196 -30 -142 27 -226 140 -216 289 6 84 36 142 96 188 79 60 199 74 287 33 28 -13 53 -24 57 -24 8 -1 118 125 118 135 0 13 -82 57 -145 79 -83 29 -209 27 -296 -4z" fill="#008dda"/>
<path d="M8625 1153 c-175 -63 -298 -210 -325 -389 -32 -211 102 -420 311 -485 122 -38 291 -17 374 47 43 33 55 30 55 -11 l0 -35 95 0 95 0 0 435 0 435 -89 0 c-96 0 -101 -3 -101 -60 0 -42 -13 -43 -50 -5 -51 53 -120 78 -225 82 -68 3 -102 -1 -140 -14z m255 -195 c176 -75 214 -312 70 -441 -75 -67 -176 -88 -285 -57 -74 21 -147 96 -170 175 -45 157 47 315 202 343 61 12 126 5 183 -20z" fill="#008dda"/>
<path d="M9913 1156 c-83 -26 -173 -104 -210 -181 -9 -19 -22 -34 -27 -32 -6 2 -15 49 -20 105 l-9 102 -78 0 -79 0 -2 -402 c-2 -222 -2 -418 0 -435 l3 -33 89 0 88 0 5 243 c2 152 9 256 16 281 18 54 91 129 153 156 41 17 66 21 119 18 73 -4 104 -20 143 -72 20 -26 21 -42 24 -327 l3 -299 94 0 95 0 0 333 c0 285 -2 341 -17 382 -22 65 -93 136 -158 158 -58 20 -172 21 -232 3z" fill="#008dda"/>
<path d="M10860 1157 c-127 -38 -242 -132 -300 -247 -124 -246 11 -545 288 -635 115 -37 324 -4 425 68 l48 34 -74 67 -74 66 -44 -24 c-92 -51 -192 -54 -280 -10 -46 23 -109 85 -109 107 0 7 136 65 303 130 166 65 312 123 325 128 22 9 22 10 7 46 -46 109 -129 197 -231 245 -54 25 -81 31 -152 34 -54 3 -104 -1 -132 -9z m197 -189 c37 -11 97 -63 89 -77 -3 -5 -18 -12 -32 -15 -14 -4 -45 -15 -68 -26 -22 -10 -63 -28 -91 -38 -27 -11 -94 -38 -147 -60 -54 -22 -100 -37 -103 -33 -9 16 22 111 50 151 34 49 105 98 154 105 20 4 43 8 51 9 18 4 52 -2 97 -16z" fill="#008dda"/>
<path d="M84 1141 c-2 -2 -4 -217 -4 -478 l0 -473 475 0 475 0 0 478 0 477 -471 0 c-259 0 -473 -2 -475 -4z" fill="#008dda"/>
<path d="M1197 683 c-4 -3 -7 -138 -7 -300 l0 -293 300 0 300 0 0 300 0 300 -293 0 c-162 0 -297 -3 -300 -7z" fill="#008dda"/>
</g>
</svg>