<svg xmlns="http://www.w3.org/2000/svg" version="1.0" width="512.000000pt" height="487.000000pt" viewBox="0 0 512.000000 487.000000" preserveAspectRatio="xMidYMid meet">

<g transform="translate(0.000000,487.000000) scale(0.100000,-0.100000)" fill="#008dda" stroke="none">
<path d="M2676 4773 c-3 -3 -6 -181 -6 -395 l0 -388 675 0 675 0 0 390 0 390 -647 1 c-357 0 -657 2 -669 4 -12 3 -24 2 -28 -2z" fill="#008dda"/>
<path d="M950 3755 l0 -675 680 0 680 0 0 675 0 675 -680 0 -680 0 0 -675z" fill="#008dda"/>
<path d="M2670 2840 l0 -800 1073 2 1072 3 0 795 0 795 -1072 3 -1073 2 0 -800z" fill="#008dda"/>
<path d="M156 2698 c-7 -29 -8 -2050 0 -2098 l6 -35 1066 2 c587 2 1070 3 1075 3 4 0 6 483 5 1073 l-3 1072 -1071 3 -1072 2 -6 -22z" fill="#008dda"/>
<path d="M2674 1691 c-2 -2 -4 -309 -4 -680 l0 -677 668 2 c367 1 670 2 675 3 4 0 6 305 5 677 l-3 677 -668 1 c-368 0 -671 -1 -673 -3z" fill="#008dda"/>
</g>
</svg>