<?xml version="1.0" standalone="no"?>
<!DOCTYPE svg PUBLIC "-//W3C//DTD SVG 20010904//EN"
 "http://www.w3.org/TR/2001/REC-SVG-20010904/DTD/svg10.dtd">
<svg version="1.0" xmlns="http://www.w3.org/2000/svg"
 width="512.000000pt" height="512.000000pt" viewBox="0 0 512.000000 512.000000"
 preserveAspectRatio="xMidYMid meet">

<g transform="translate(0.000000,512.000000) scale(0.100000,-0.100000)"
fill="#000000" stroke="none">
<path d="M2360 4960 c-322 -33 -572 -105 -855 -245 -243 -120 -434 -258 -629
-451 -189 -190 -323 -374 -447 -619 -119 -235 -196 -478 -236 -745 -21 -142
-24 -490 -4 -630 87 -632 395 -1182 882 -1572 330 -265 723 -438 1149 -505
161 -25 538 -25 699 0 730 115 1340 526 1720 1160 149 247 259 559 307 867 23
142 26 518 6 655 -79 547 -308 1011 -687 1390 -365 366 -839 604 -1355 680
-127 19 -433 27 -550 15z m-1385 -1996 c21 -8 42 -52 100 -207 26 -70 49 -126
50 -125 2 2 24 62 50 133 28 78 57 141 72 157 36 38 85 53 126 39 59 -21 83
-57 133 -192 26 -71 49 -129 53 -129 3 0 29 62 56 137 59 161 83 193 145 193
69 0 144 -48 155 -101 5 -22 -22 -96 -119 -335 -70 -170 -136 -318 -148 -331
-12 -13 -39 -28 -59 -34 -31 -10 -43 -9 -75 7 -52 26 -68 51 -123 199 -44 116
-50 127 -59 105 -5 -14 -26 -70 -46 -125 -21 -55 -46 -114 -57 -131 -25 -41
-79 -67 -122 -59 -69 13 -80 31 -213 355 -69 168 -126 319 -127 337 -1 39 24
69 78 94 40 19 99 24 130 13z m1230 0 c21 -8 42 -52 100 -207 26 -70 49 -126
50 -125 1 2 24 62 50 133 27 75 58 142 73 157 35 38 83 53 127 38 55 -18 87
-65 134 -198 24 -67 46 -122 49 -122 4 0 30 62 57 137 59 161 83 193 144 193
73 0 161 -62 161 -113 0 -32 -248 -629 -272 -654 -12 -13 -39 -28 -59 -34 -31
-10 -43 -9 -75 7 -52 26 -68 51 -123 199 -44 116 -50 127 -59 105 -5 -14 -26
-70 -46 -125 -21 -55 -46 -114 -57 -131 -25 -41 -79 -67 -122 -59 -69 13 -80
31 -213 355 -69 168 -126 319 -127 337 -1 39 24 69 78 94 40 19 99 24 130 13z
m1230 0 c21 -8 42 -52 100 -207 26 -70 49 -126 50 -125 1 2 24 62 50 133 27
74 58 142 73 157 35 38 83 53 127 38 55 -18 87 -65 134 -198 24 -67 46 -122
49 -122 4 0 30 62 57 137 59 161 83 193 144 193 83 0 167 -67 158 -125 -8 -50
-246 -618 -269 -643 -12 -12 -39 -27 -59 -33 -31 -10 -43 -9 -75 7 -52 26 -68
51 -123 199 -44 116 -50 127 -59 105 -5 -14 -26 -70 -46 -125 -21 -55 -46
-114 -57 -131 -25 -41 -79 -67 -122 -59 -69 13 -80 31 -213 355 -69 168 -126
319 -127 337 -1 39 24 69 78 94 40 19 99 24 130 13z"/>
</g>
</svg>
